<?xml version="1.0" encoding="UTF-8" standalone="no"?>
<svg xmlns:dc="http://purl.org/dc/elements/1.1/" xmlns:cc="http://creativecommons.org/ns#" xmlns:rdf="http://www.w3.org/1999/02/22-rdf-syntax-ns#" xmlns:svg="http://www.w3.org/2000/svg" xmlns="http://www.w3.org/2000/svg" xmlns:sodipodi="http://sodipodi.sourceforge.net/DTD/sodipodi-0.dtd" xmlns:inkscape="http://www.inkscape.org/namespaces/inkscape" width="210mm" height="297mm" viewBox="0 0 210 297" version="1.1" id="svg8" sodipodi:docname="toast.svg" inkscape:version="1.0 (4035a4fb49, 2020-05-01)">
  <defs id="defs2">
    <clipPath clipPathUnits="userSpaceOnUse" id="clipPath1002">
      <path fill="#ffac33" d="m 142.9592,151.06176 -3.65522,-2.23678 c -0.40375,-0.24712 -1.05833,-0.24712 -1.46235,0 l -1.82774,1.11866 c -0.36539,0.22357 -0.18283,0.33549 -0.54822,0.55906 -0.36539,0.22357 -0.54821,0.11165 -0.91387,0.33549 -0.36565,0.22357 -0.40375,0.64744 0,0.89482 l 3.65522,2.23705 c 0.40375,0.24739 1.0967,0.22437 1.46182,0 0.36592,-0.22357 0.18309,-0.33522 0.54848,-0.55932 0.36539,-0.22331 0.54796,-0.11166 0.91387,-0.33497 0.36592,-0.22436 1.82775,-1.11866 1.82775,-1.11866 0.40375,-0.24712 0.40402,-0.64822 2.6e-4,-0.89535 z" id="path1004" style="fill:#cc927a;fill-opacity:1;stroke-width:0.264583"/>
    </clipPath>
    <clipPath id="clipPath3083" clipPathUnits="userSpaceOnUse">
      <g transform="translate(-0.009692)" id="g3097">
        <ellipse transform="matrix(0.99452189,-0.10452847,-0.10452847,-0.99452189,0,0)" ry="1.0857824" rx="0.26726952" cy="-147.23386" cx="63.147415" id="ellipse3085" style="fill:#662113;fill-opacity:1;fill-rule:evenodd;stroke-width:0.264583"/>
        <ellipse transform="matrix(0.99756405,-0.06975648,-0.06975648,-0.99756405,0,0)" style="fill:#662113;fill-opacity:1;fill-rule:evenodd;stroke-width:0.264583" id="ellipse3087" cx="69.373634" cy="-145.2619" rx="0.26726952" ry="1.0857824"/>
        <ellipse transform="matrix(0.99939083,-0.0348995,-0.0348995,-0.99939083,0,0)" ry="1.0857824" rx="0.26726952" cy="-142.97591" cx="75.539749" id="ellipse3089" style="fill:#662113;fill-opacity:1;fill-rule:evenodd;stroke-width:0.264583"/>
        <ellipse transform="matrix(0.99939083,0.0348995,0.0348995,-0.99939083,0,0)" style="fill:#662113;fill-opacity:1;fill-rule:evenodd;stroke-width:0.264583" id="ellipse3091" cx="86.474304" cy="-137.31827" rx="0.26726952" ry="1.0857824"/>
        <ellipse transform="matrix(0.99756405,0.06975648,0.06975648,-0.99756405,0,0)" ry="1.0857824" rx="0.26726952" cy="-133.95348" cx="92.344269" id="ellipse3093" style="fill:#662113;fill-opacity:1;fill-rule:evenodd;stroke-width:0.264583"/>
        <ellipse transform="matrix(0.99452189,0.10452847,0.10452847,-0.99452189,0,0)" style="fill:#662113;fill-opacity:1;fill-rule:evenodd;stroke-width:0.264583" id="ellipse3095" cx="98.077324" cy="-130.28844" rx="0.26726952" ry="1.0857824"/>
      </g>
    </clipPath>
    <clipPath id="clipPath16" clipPathUnits="userSpaceOnUse">
      <path id="path18" d="M 0,36 36,36 36,0 0,0 0,36 Z"/>
    </clipPath>
  </defs>
  <sodipodi:namedview id="base" pagecolor="#ffffff" bordercolor="#666666" borderopacity="1.0" inkscape:pageopacity="0.0" inkscape:pageshadow="2" inkscape:zoom="0.7" inkscape:cx="-92.325066" inkscape:cy="753.83688" inkscape:document-units="mm" inkscape:current-layer="layer1" inkscape:document-rotation="0" showgrid="false" inkscape:window-width="1920" inkscape:window-height="1027" inkscape:window-x="-8" inkscape:window-y="-8" inkscape:window-maximized="1"/>
  <metadata id="metadata5">
    <rdf:RDF>
      <cc:Work rdf:about="">
        <dc:format>image/svg+xml</dc:format>
        <dc:type rdf:resource="http://purl.org/dc/dcmitype/StillImage"/>
      </cc:Work>
    </rdf:RDF>
  </metadata>
  <g inkscape:label="Layer 1" inkscape:groupmode="layer" id="layer1">
    <g transform="matrix(6.2074774,0,0,6.2074774,-849.61362,-828.72687)" inkscape:export-ydpi="1444.926" inkscape:export-xdpi="1444.926" inkscape:export-filename="F:\My Art\SVG &amp; SALES\MOREmoji\SET 3\png\toast.png" id="g2456">
      <path fill="#f4900c" d="m 159.01088,159.10605 -8.99584,-0.13652 v 0.69453 h 0.004 c 0.005,0.1569 0.0939,0.31432 0.28575,0.4318 l 1.82748,1.11866 1.82774,1.11839 c 0.40375,0.24739 1.0967,0.22437 1.46182,0 0.36592,-0.22357 0.18309,-0.33523 0.54848,-0.55933 0.36539,-0.22331 0.54796,-0.11165 0.91387,-0.33496 0.36592,-0.22437 1.82801,-1.1184 1.82801,-1.1184 0.20135,-0.12329 0.30189,-0.28495 0.30242,-0.44688 v -0.001 z" id="path913-4-7-3-8-1" style="fill:#662113;fill-opacity:1;stroke-width:0.264583"/>
      <path opacity="0.5" fill="#d3790d" d="m 156.46992,160.80182 c 0.002,0.12064 0.0173,0.12357 0.0212,0.36669 0.008,0.47327 0.63529,0.38715 0.62257,-0.39935 -0.001,-0.0915 0.004,-0.27024 0.004,-0.27024 z" id="path1076-0-8-8-0-3" style="fill:#ffd983;fill-opacity:1;stroke-width:0.264583" sodipodi:nodetypes="ccccc"/>
      <path fill="#ffac33" d="m 158.71269,158.63112 -3.65522,-2.23678 c -0.40375,-0.24712 -1.05833,-0.24712 -1.46235,0 l -1.82774,1.11866 c -0.36539,0.22357 -0.18283,0.33549 -0.54822,0.55906 -0.36539,0.22357 -0.54821,0.11165 -0.91387,0.33549 -0.36565,0.22357 -0.40375,0.64744 0,0.89482 l 3.65522,2.23705 c 0.40375,0.24739 1.0967,0.22437 1.46182,0 0.36592,-0.22357 0.18309,-0.33522 0.54848,-0.55932 0.36539,-0.22331 0.54796,-0.11166 0.91387,-0.33497 0.36592,-0.22436 1.82775,-1.11866 1.82775,-1.11866 0.40375,-0.24712 0.40402,-0.64822 2.6e-4,-0.89535 z" id="path915-8-3-3-7-6-8-6" style="fill:#8a4b38;fill-opacity:1;stroke-width:0.264583"/>
      <path inkscape:export-ydpi="1589.9089" inkscape:export-xdpi="1589.9089" inkscape:export-filename="F:\My Art\SVG &amp; SALES\MOREmoji\SET 3\png\toast2.png" fill="#ffd983" d="m 158.44202,158.85523 -3.742,-2.23706 c 0,0 -0.39873,-0.20928 -0.74851,0 l -1.84203,1.1012 c -0.3167,0.18918 -0.27331,0.38709 -0.59002,0.57626 -0.31644,0.18944 -0.61886,0.14632 -0.93556,0.33549 -0.37412,0.22411 0,0.44794 0,0.44794 l 3.74173,2.23706 c 0,0 0.37413,0.2233 0.74825,0 0.3167,-0.18971 0.245,-0.36963 0.56118,-0.55933 0.3167,-0.18971 0.64743,-0.16378 0.96414,-0.35296 0.31671,-0.18891 1.84229,-1.10146 1.84229,-1.10146 0,0 0.35005,-0.23839 5.3e-4,-0.44714 z" id="path917-5-9-9-3-7" style="fill:#cc927a;fill-opacity:1;stroke-width:0.264583"/>
      <path fill="#d3790d" d="m 154.00255,157.93609 c -0.9055,-0.2603 -1.28289,-0.11553 -1.21243,0.5925 0.0183,0.18308 -0.22886,0.49245 -0.47787,0.67219 -0.57936,0.41794 -0.31648,1.0964 0.68146,0.57695 0.49989,-0.25999 1.23483,-0.25468 2.13077,0.004 0.75185,0.217 1.27889,0.6851 1.34544,1.02009 0.31296,-0.0428 0.50478,-0.17833 0.64777,-0.3029 -0.0639,-0.13816 -0.45102,-0.74981 -0.88928,-0.93351 -0.82913,-0.34779 -0.0423,-0.88075 0.57151,-1.01744 0.55556,-0.12356 -6.4e-4,-0.53452 -0.84834,-0.50572 -0.84684,0.0291 -0.62986,0.27348 -1.94903,-0.1058 z" id="path1074-9-9-0-9-8" style="opacity:0.75;fill:#ffd983;fill-opacity:1;stroke-width:0.264583" sodipodi:nodetypes="cccccccccccc"/>
      <path fill="#ffac33" d="m 155.61674,158.27102 c 0.1217,0.0693 0.12197,0.49292 0,0.56224 l -0.88054,0.50191 c -0.12171,0.0693 -0.31856,0.0693 -0.44026,0 l -0.8808,-0.50191 c -0.12171,-0.0693 -0.12171,-0.49292 0,-0.56224 l 0.8808,-0.19076 c 0.1217,-0.0693 0.31855,-0.0693 0.44026,0 z" id="path1078-3-4-2-5-2" style="stroke-width:0.264583"/>
      <path fill="#ffd983" d="m 155.61674,158.27102 c 0.1217,0.0693 0.12197,0.1815 0,0.25083 l -0.88054,0.50191 c -0.12171,0.0693 -0.31856,0.0693 -0.44026,0 l -0.8808,-0.50191 c -0.12171,-0.0693 -0.12171,-0.18151 0,-0.25083 l 0.8808,-0.50191 c 0.1217,-0.0693 0.31855,-0.0693 0.44026,0 z" id="path1080-9-0-5-0-9" style="stroke-width:0.264583"/>
    </g>
  </g>
</svg>