<svg version="1.1" id="Uploaded to svgrepo.com" xmlns="http://www.w3.org/2000/svg" xmlns:xlink="http://www.w3.org/1999/xlink" x="0px" y="0px"
	 width="32px" height="32px" viewBox="0 0 32 32" style="enable-background:new 0 0 32 32;" xml:space="preserve">
<style type="text/css">
	.cubies_eenentwintig{fill:#C9483A;}
	.cubies_tweeentwintig{fill:#D97360;}
	.cubies_negentien{fill:#F2C99E;}
	.cubies_zeventien{fill:#EC9B5A;}
	.cubies_achtien{fill:#EDB57E;}
	.st0{fill:#F9E0BD;}
	.st1{fill:#65C3AB;}
	.st2{fill:#98D3BC;}
	.st3{fill:#E3D4C0;}
	.st4{fill:#FFF2DF;}
	.st5{fill:#CCE2CD;}
	.st6{fill:#4C4842;}
	.st7{fill:#67625D;}
	.st8{fill:#EDEAE5;}
	.st9{fill:#C9C6C0;}
	.st10{fill:#BCD269;}
	.st11{fill:#A4C83F;}
	.st12{fill:#837F79;}
	.st13{fill:#2EB39A;}
	.st14{fill:#725A48;}
	.st15{fill:#8E7866;}
	.st16{fill:#E69D8A;}
	.st17{fill:#A5A29C;}
	.st18{fill:#D1DE8B;}
	.st19{fill:#E8E8B5;}
</style>
<g>
	<path class="cubies_eenentwintig" d="M29,32H3c-1.657,0-3-1.343-3-3V13c0-1.657,1.343-3,3-3h26c1.657,0,3,1.343,3,3v16
		C32,30.657,30.657,32,29,32z"/>
	<path class="cubies_tweeentwintig" d="M27,32H3c-1.657,0-3-1.343-3-3V13c0-1.657,1.343-3,3-3h24c1.657,0,3,1.343,3,3v16
		C30,30.657,28.657,32,27,32z"/>
	<path class="cubies_zeventien" d="M29,10H3V3c0-1.657,1.343-3,3-3h20c1.657,0,3,1.343,3,3V10z"/>
	<path class="cubies_negentien" d="M27,10H3V3c0-1.657,1.343-3,3-3h18c1.657,0,3,1.343,3,3V10z"/>
	<path class="cubies_achtien" d="M24,0H6C4.343,0,3,1.343,3,3v7h3V4c0-0.551,0.449-1,1-1h16c0.551,0,1,0.449,1,1v6h3V3
		C27,1.343,25.657,0,24,0z"/>
	<path class="cubies_eenentwintig" d="M24,13c-0.552,0-1,0.448-1,1v14c0,0.552,0.448,1,1,1s1-0.448,1-1V14
		C25,13.448,24.552,13,24,13z"/>
	<path class="cubies_zeventien" d="M26,19h-4c-0.552,0-1-0.448-1-1v-2c0-0.552,0.448-1,1-1h4c0.552,0,1,0.448,1,1v2
		C27,18.552,26.552,19,26,19z"/>
	<path class="cubies_achtien" d="M25,19h-3c-0.552,0-1-0.448-1-1v-2c0-0.552,0.448-1,1-1h3c0.552,0,1,0.448,1,1v2
		C26,18.552,25.552,19,25,19z"/>
</g>
</svg>
